<mxfile host="app.diagrams.net" modified="2020-10-29T10:26:38.391Z" agent="5.0 (Macintosh; Intel Mac OS X 10_15_7) AppleWebKit/537.36 (KHTML, like Gecko) Chrome/85.0.4183.121 Safari/537.36 OPR/71.0.3770.302" etag="LYjhYsipSfAUjcyx7pL3" version="13.8.6" type="github">
  <diagram id="XWeVd_jk2KBsiz_X4NiZ" name="Page-1">
    <mxGraphModel dx="852" dy="597" grid="1" gridSize="10" guides="1" tooltips="1" connect="1" arrows="1" fold="1" page="1" pageScale="1" pageWidth="827" pageHeight="1169" math="0" shadow="0">
      <root>
        <mxCell id="0" />
        <mxCell id="1" parent="0" />
        <mxCell id="wvHs_OoFRkiT8NLEskQe-1" value="" style="whiteSpace=wrap;html=1;aspect=fixed;" vertex="1" parent="1">
          <mxGeometry x="180" y="640" width="80" height="80" as="geometry" />
        </mxCell>
        <mxCell id="wvHs_OoFRkiT8NLEskQe-2" value="" style="whiteSpace=wrap;html=1;aspect=fixed;" vertex="1" parent="1">
          <mxGeometry x="350" y="530" width="80" height="80" as="geometry" />
        </mxCell>
        <mxCell id="wvHs_OoFRkiT8NLEskQe-3" value="" style="whiteSpace=wrap;html=1;aspect=fixed;" vertex="1" parent="1">
          <mxGeometry x="380" y="800" width="80" height="80" as="geometry" />
        </mxCell>
      </root>
    </mxGraphModel>
  </diagram>
</mxfile>
